<svg xmlns="http://www.w3.org/2000/svg" xmlns:xlink="http://www.w3.org/1999/xlink" width="1080" zoomAndPan="magnify" viewBox="0 0 810 809.999993" height="1080" preserveAspectRatio="xMidYMid meet" version="1.0"><defs><g/><clipPath id="1c356c2722"><path d="M 215.851562 287 L 417 287 L 417 462 L 215.851562 462 Z M 215.851562 287 " clip-rule="nonzero"/></clipPath><clipPath id="93a8946754"><path d="M 417.808594 258 L 593 258 L 593 467 L 417.808594 467 Z M 417.808594 258 " clip-rule="nonzero"/></clipPath><clipPath id="1587ab1f1f"><path d="M 506 217.640625 L 542 217.640625 L 542 254 L 506 254 Z M 506 217.640625 " clip-rule="nonzero"/></clipPath><clipPath id="3e750dbb8f"><path d="M 437.097656 321.191406 L 491.183594 321.191406 L 491.183594 375.28125 L 437.097656 375.28125 Z M 437.097656 321.191406 " clip-rule="nonzero"/></clipPath><clipPath id="c49f633289"><path d="M 464.140625 321.191406 C 449.203125 321.191406 437.097656 333.300781 437.097656 348.238281 C 437.097656 363.175781 449.203125 375.28125 464.140625 375.28125 C 479.078125 375.28125 491.183594 363.175781 491.183594 348.238281 C 491.183594 333.300781 479.078125 321.191406 464.140625 321.191406 Z M 464.140625 321.191406 " clip-rule="nonzero"/></clipPath><clipPath id="593c5fa090"><path d="M 329.738281 221.976562 L 392.5 221.976562 L 392.5 284.742188 L 329.738281 284.742188 Z M 329.738281 221.976562 " clip-rule="nonzero"/></clipPath><clipPath id="84fc8d205a"><path d="M 361.121094 221.976562 C 343.789062 221.976562 329.738281 236.027344 329.738281 253.359375 C 329.738281 270.691406 343.789062 284.742188 361.121094 284.742188 C 378.453125 284.742188 392.5 270.691406 392.5 253.359375 C 392.5 236.027344 378.453125 221.976562 361.121094 221.976562 Z M 361.121094 221.976562 " clip-rule="nonzero"/></clipPath><clipPath id="0a44febf19"><path d="M 373.328125 356.105469 L 411.675781 356.105469 L 411.675781 394.457031 L 373.328125 394.457031 Z M 373.328125 356.105469 " clip-rule="nonzero"/></clipPath><clipPath id="ccac250992"><path d="M 392.5 356.105469 C 381.910156 356.105469 373.328125 364.691406 373.328125 375.28125 C 373.328125 385.871094 381.910156 394.457031 392.5 394.457031 C 403.09375 394.457031 411.675781 385.871094 411.675781 375.28125 C 411.675781 364.691406 403.09375 356.105469 392.5 356.105469 Z M 392.5 356.105469 " clip-rule="nonzero"/></clipPath><clipPath id="fb7b82b2d5"><path d="M 425.789062 242.054688 L 448.402344 242.054688 L 448.402344 264.664062 L 425.789062 264.664062 Z M 425.789062 242.054688 " clip-rule="nonzero"/></clipPath><clipPath id="fbe0d370e2"><path d="M 437.097656 242.054688 C 430.851562 242.054688 425.789062 247.117188 425.789062 253.359375 C 425.789062 259.605469 430.851562 264.664062 437.097656 264.664062 C 443.339844 264.664062 448.402344 259.605469 448.402344 253.359375 C 448.402344 247.117188 443.339844 242.054688 437.097656 242.054688 Z M 437.097656 242.054688 " clip-rule="nonzero"/></clipPath><clipPath id="d1a6e67dd7"><path d="M 441.527344 415.84375 L 464.140625 415.84375 L 464.140625 438.457031 L 441.527344 438.457031 Z M 441.527344 415.84375 " clip-rule="nonzero"/></clipPath><clipPath id="748e85cf2c"><path d="M 452.835938 415.84375 C 446.589844 415.84375 441.527344 420.90625 441.527344 427.152344 C 441.527344 433.394531 446.589844 438.457031 452.835938 438.457031 C 459.078125 438.457031 464.140625 433.394531 464.140625 427.152344 C 464.140625 420.90625 459.078125 415.84375 452.835938 415.84375 Z M 452.835938 415.84375 " clip-rule="nonzero"/></clipPath></defs><g clip-path="url(#1c356c2722)"><path fill="#faad26" d="M 216.265625 380.839844 C 215.851562 378.789062 215.851562 376.53125 215.851562 374.476562 C 215.851562 360.109375 222.21875 346.355469 230.222656 334.652344 C 237.40625 324.183594 246.851562 315.5625 257.933594 309.40625 C 270.457031 302.628906 286.46875 297.703125 300.835938 298.730469 C 314.796875 299.757812 328.550781 302.425781 342.714844 303.042969 C 356.261719 303.65625 370.015625 303.65625 383.5625 301.808594 C 393.828125 300.167969 404.707031 297.5 413.121094 291.136719 C 414.558594 290.109375 415.792969 289.082031 416.816406 287.851562 C 416.40625 288.261719 416.203125 289.699219 415.996094 290.109375 C 415.175781 292.160156 414.148438 294.214844 413.121094 296.0625 C 409.222656 302.632812 403.886719 308.378906 397.726562 312.6875 C 387.464844 319.875 375.558594 323.570312 363.652344 325.417969 C 358.109375 326.238281 352.566406 326.648438 346.820312 326.648438 C 342.507812 326.648438 338.195312 326.03125 333.886719 326.441406 C 329.78125 326.648438 325.878906 328.289062 322.390625 330.34375 C 316.234375 334.039062 313.152344 340.195312 316.027344 347.175781 C 318.285156 352.511719 322.597656 357.851562 327.523438 360.929688 C 335.734375 366.0625 343.125 372.628906 349.488281 379.8125 C 355.851562 387 360.984375 395.210938 364.265625 404.242188 C 367.960938 414.710938 368.78125 425.796875 366.523438 436.675781 C 364.675781 445.707031 360.777344 454.125 356.054688 461.925781 C 360.984375 453.917969 356.464844 434.007812 354.414062 426 C 349.28125 406.5 334.707031 389.871094 315 384.535156 C 298.988281 380.226562 279.898438 381.25 266.351562 370.371094 C 263.476562 368.113281 260.601562 365.035156 259.167969 361.542969 C 258.550781 359.902344 257.933594 358.464844 256.703125 357.027344 C 249.519531 349.023438 239.050781 361.957031 236.382812 367.910156 C 229.8125 382.6875 231.042969 399.519531 237.816406 413.890625 C 238.023438 413.683594 219.546875 395.621094 216.265625 380.839844 Z M 216.265625 380.839844 " fill-opacity="1" fill-rule="nonzero"/></g><path fill="#faad26" d="M 296.320312 375.09375 C 272.304688 372.835938 250.339844 385.355469 239.460938 405.269531 C 249.519531 389.050781 268.199219 378.992188 288.519531 381.046875 C 316.847656 383.917969 337.785156 409.167969 334.914062 437.496094 C 332.039062 465.824219 306.789062 486.761719 278.460938 483.886719 C 258.140625 481.835938 241.71875 468.492188 235.148438 450.632812 C 241.921875 472.394531 261.21875 489.019531 285.234375 491.277344 C 317.257812 494.355469 345.792969 470.957031 349.078125 438.933594 C 351.746094 406.910156 328.34375 378.378906 296.320312 375.09375 Z M 296.320312 375.09375 " fill-opacity="1" fill-rule="nonzero"/><path fill="#faad26" d="M 287.289062 389.871094 C 304.941406 391.515625 319.105469 403.832031 324.035156 419.636719 C 319.105469 406.5 306.996094 396.648438 292.214844 395.210938 C 271.277344 393.15625 252.804688 408.347656 250.75 429.285156 C 248.699219 450.222656 263.886719 468.699219 284.824219 470.75 C 299.8125 472.1875 313.359375 464.796875 320.75 452.890625 C 312.742188 467.464844 296.527344 476.703125 278.871094 475.0625 C 255.265625 472.804688 238.023438 451.867188 240.488281 428.257812 C 242.746094 404.859375 263.683594 387.613281 287.289062 389.871094 Z M 287.289062 389.871094 " fill-opacity="1" fill-rule="nonzero"/><path fill="#faad26" d="M 290.164062 277.996094 C 290.164062 278.574219 290.132812 279.152344 290.078125 279.726562 C 290.019531 280.304688 289.9375 280.875 289.824219 281.441406 C 289.710938 282.007812 289.570312 282.570312 289.402344 283.121094 C 289.234375 283.675781 289.039062 284.21875 288.820312 284.753906 C 288.597656 285.289062 288.351562 285.808594 288.078125 286.320312 C 287.804688 286.828125 287.507812 287.324219 287.1875 287.804688 C 286.867188 288.285156 286.523438 288.75 286.15625 289.195312 C 285.789062 289.644531 285.402344 290.070312 284.992188 290.480469 C 284.582031 290.890625 284.15625 291.277344 283.707031 291.644531 C 283.261719 292.011719 282.796875 292.355469 282.316406 292.675781 C 281.835938 292.996094 281.339844 293.292969 280.832031 293.566406 C 280.320312 293.839844 279.800781 294.085938 279.265625 294.308594 C 278.730469 294.527344 278.1875 294.722656 277.632812 294.890625 C 277.082031 295.058594 276.519531 295.199219 275.953125 295.3125 C 275.386719 295.425781 274.816406 295.511719 274.238281 295.566406 C 273.664062 295.625 273.085938 295.652344 272.507812 295.652344 C 271.929688 295.652344 271.355469 295.625 270.777344 295.566406 C 270.203125 295.511719 269.632812 295.425781 269.066406 295.3125 C 268.5 295.199219 267.9375 295.058594 267.382812 294.890625 C 266.832031 294.722656 266.289062 294.527344 265.753906 294.308594 C 265.21875 294.085938 264.699219 293.839844 264.1875 293.566406 C 263.675781 293.292969 263.183594 292.996094 262.703125 292.675781 C 262.222656 292.355469 261.757812 292.011719 261.308594 291.644531 C 260.863281 291.277344 260.433594 290.890625 260.027344 290.480469 C 259.617188 290.070312 259.230469 289.644531 258.863281 289.195312 C 258.496094 288.75 258.152344 288.285156 257.832031 287.804688 C 257.507812 287.324219 257.210938 286.828125 256.941406 286.320312 C 256.667969 285.808594 256.421875 285.289062 256.199219 284.753906 C 255.976562 284.21875 255.785156 283.675781 255.617188 283.121094 C 255.449219 282.570312 255.308594 282.007812 255.195312 281.441406 C 255.082031 280.875 254.996094 280.304688 254.941406 279.726562 C 254.882812 279.152344 254.855469 278.574219 254.855469 277.996094 C 254.855469 277.417969 254.882812 276.84375 254.941406 276.265625 C 254.996094 275.691406 255.082031 275.121094 255.195312 274.554688 C 255.308594 273.988281 255.449219 273.425781 255.617188 272.875 C 255.785156 272.320312 255.976562 271.777344 256.199219 271.242188 C 256.421875 270.707031 256.667969 270.1875 256.941406 269.675781 C 257.210938 269.167969 257.507812 268.671875 257.832031 268.191406 C 258.152344 267.710938 258.496094 267.246094 258.863281 266.796875 C 259.230469 266.351562 259.617188 265.921875 260.027344 265.515625 C 260.433594 265.105469 260.863281 264.71875 261.308594 264.351562 C 261.757812 263.984375 262.222656 263.640625 262.703125 263.320312 C 263.183594 263 263.675781 262.703125 264.1875 262.429688 C 264.699219 262.15625 265.21875 261.910156 265.753906 261.6875 C 266.289062 261.46875 266.832031 261.273438 267.382812 261.105469 C 267.9375 260.9375 268.5 260.796875 269.066406 260.683594 C 269.632812 260.570312 270.203125 260.484375 270.777344 260.429688 C 271.355469 260.371094 271.929688 260.34375 272.507812 260.34375 C 273.085938 260.34375 273.664062 260.371094 274.238281 260.429688 C 274.816406 260.484375 275.386719 260.570312 275.953125 260.683594 C 276.519531 260.796875 277.082031 260.9375 277.632812 261.105469 C 278.1875 261.273438 278.730469 261.46875 279.265625 261.6875 C 279.800781 261.910156 280.320312 262.15625 280.832031 262.429688 C 281.339844 262.703125 281.835938 263 282.316406 263.320312 C 282.796875 263.640625 283.261719 263.984375 283.707031 264.351562 C 284.15625 264.71875 284.582031 265.105469 284.992188 265.515625 C 285.402344 265.921875 285.789062 266.351562 286.15625 266.796875 C 286.523438 267.246094 286.867188 267.710938 287.1875 268.191406 C 287.507812 268.671875 287.804688 269.167969 288.078125 269.675781 C 288.351562 270.1875 288.597656 270.707031 288.820312 271.242188 C 289.039062 271.777344 289.234375 272.320312 289.402344 272.875 C 289.570312 273.425781 289.710938 273.988281 289.824219 274.554688 C 289.9375 275.121094 290.019531 275.691406 290.078125 276.265625 C 290.132812 276.84375 290.164062 277.417969 290.164062 277.996094 Z M 290.164062 277.996094 " fill-opacity="1" fill-rule="nonzero"/><g clip-path="url(#93a8946754)"><path fill="#57c5f0" d="M 417.601562 287.644531 C 432.585938 286.824219 453.523438 288.054688 467.6875 282.308594 C 480.210938 277.175781 491.292969 269.375 503.609375 263.832031 C 525.984375 253.980469 549.59375 257.882812 567.453125 274.714844 C 586.746094 293.1875 593.726562 328.085938 587.566406 352.921875 C 590.238281 341.839844 567.246094 296.472656 554.519531 297.5 C 541.792969 298.523438 551.851562 325.003906 553.699219 330.34375 C 556.980469 341.015625 561.292969 351.691406 566.835938 361.339844 C 576.074219 377.554688 588.183594 390.078125 591.058594 408.964844 C 594.136719 428.257812 591.261719 447.964844 584.898438 466.441406 C 587.363281 459.664062 583.257812 446.734375 581.820312 439.753906 C 578.945312 425.386719 573.609375 411.425781 566.015625 398.699219 C 563.140625 393.773438 559.855469 389.050781 554.929688 386.175781 C 543.433594 379.199219 532.144531 390.898438 526.191406 399.726562 C 521.058594 407.527344 517.160156 416.148438 514.285156 425.179688 C 512.4375 431.132812 511 437.292969 509.972656 443.65625 C 509.359375 447.144531 508.949219 450.839844 508.539062 454.535156 C 508.128906 457.820312 506.691406 463.359375 507.511719 466.441406 C 507.511719 466.441406 493.757812 419.023438 511.820312 376.941406 C 515.722656 367.703125 515.925781 354.359375 515.925781 344.507812 C 515.925781 333.628906 514.492188 322.335938 511.207031 312.074219 C 508.332031 303.042969 502.996094 294.417969 492.320312 294.007812 C 488.832031 293.804688 485.546875 294.832031 482.058594 295.445312 C 470.972656 297.703125 459.476562 298.320312 448.1875 297.089844 C 443.671875 296.679688 439.15625 295.855469 435.050781 294.417969 C 435.253906 294.625 422.734375 292.160156 417.601562 287.644531 Z M 417.601562 287.644531 " fill-opacity="1" fill-rule="nonzero"/></g><g clip-path="url(#1587ab1f1f)"><path fill="#57c5f0" d="M 541.585938 235.507812 C 541.585938 236.085938 541.558594 236.660156 541.5 237.238281 C 541.445312 237.8125 541.359375 238.382812 541.246094 238.949219 C 541.132812 239.515625 540.996094 240.078125 540.828125 240.628906 C 540.660156 241.183594 540.464844 241.726562 540.242188 242.261719 C 540.023438 242.796875 539.773438 243.316406 539.503906 243.828125 C 539.230469 244.335938 538.933594 244.832031 538.613281 245.3125 C 538.289062 245.792969 537.945312 246.257812 537.578125 246.707031 C 537.210938 247.152344 536.824219 247.582031 536.417969 247.988281 C 536.007812 248.398438 535.578125 248.785156 535.132812 249.152344 C 534.683594 249.519531 534.222656 249.863281 533.742188 250.183594 C 533.261719 250.503906 532.765625 250.800781 532.253906 251.074219 C 531.746094 251.347656 531.222656 251.59375 530.6875 251.816406 C 530.15625 252.039062 529.609375 252.230469 529.058594 252.398438 C 528.503906 252.566406 527.945312 252.707031 527.378906 252.820312 C 526.808594 252.933594 526.238281 253.019531 525.664062 253.074219 C 525.089844 253.132812 524.511719 253.160156 523.933594 253.160156 C 523.355469 253.160156 522.777344 253.132812 522.203125 253.074219 C 521.628906 253.019531 521.054688 252.933594 520.488281 252.820312 C 519.921875 252.707031 519.363281 252.566406 518.808594 252.398438 C 518.253906 252.230469 517.710938 252.039062 517.175781 251.816406 C 516.644531 251.59375 516.121094 251.347656 515.609375 251.074219 C 515.101562 250.800781 514.605469 250.503906 514.125 250.183594 C 513.644531 249.863281 513.179688 249.519531 512.734375 249.152344 C 512.285156 248.785156 511.859375 248.398438 511.449219 247.988281 C 511.042969 247.582031 510.652344 247.152344 510.285156 246.707031 C 509.917969 246.257812 509.574219 245.792969 509.253906 245.3125 C 508.933594 244.832031 508.636719 244.335938 508.363281 243.828125 C 508.089844 243.316406 507.84375 242.796875 507.625 242.261719 C 507.402344 241.726562 507.207031 241.183594 507.039062 240.628906 C 506.871094 240.078125 506.730469 239.515625 506.617188 238.949219 C 506.507812 238.382812 506.421875 237.8125 506.363281 237.238281 C 506.308594 236.660156 506.28125 236.085938 506.28125 235.507812 C 506.28125 234.929688 506.308594 234.351562 506.363281 233.777344 C 506.421875 233.199219 506.507812 232.628906 506.617188 232.0625 C 506.730469 231.496094 506.871094 230.933594 507.039062 230.382812 C 507.207031 229.828125 507.402344 229.285156 507.625 228.75 C 507.84375 228.214844 508.089844 227.695312 508.363281 227.183594 C 508.636719 226.675781 508.933594 226.179688 509.253906 225.699219 C 509.574219 225.21875 509.917969 224.753906 510.285156 224.308594 C 510.652344 223.859375 511.042969 223.433594 511.449219 223.023438 C 511.859375 222.613281 512.285156 222.226562 512.734375 221.859375 C 513.179688 221.492188 513.644531 221.148438 514.125 220.828125 C 514.605469 220.507812 515.101562 220.210938 515.609375 219.9375 C 516.121094 219.664062 516.644531 219.417969 517.175781 219.195312 C 517.710938 218.976562 518.253906 218.78125 518.808594 218.613281 C 519.363281 218.445312 519.921875 218.304688 520.488281 218.191406 C 521.054688 218.078125 521.628906 217.992188 522.203125 217.9375 C 522.777344 217.878906 523.355469 217.851562 523.933594 217.851562 C 524.511719 217.851562 525.089844 217.878906 525.664062 217.9375 C 526.238281 217.992188 526.808594 218.078125 527.378906 218.191406 C 527.945312 218.304688 528.503906 218.445312 529.058594 218.613281 C 529.609375 218.78125 530.15625 218.976562 530.6875 219.195312 C 531.222656 219.417969 531.746094 219.664062 532.253906 219.9375 C 532.765625 220.210938 533.261719 220.507812 533.742188 220.828125 C 534.222656 221.148438 534.683594 221.492188 535.132812 221.859375 C 535.578125 222.226562 536.007812 222.613281 536.417969 223.023438 C 536.824219 223.433594 537.210938 223.859375 537.578125 224.308594 C 537.945312 224.753906 538.289062 225.21875 538.613281 225.699219 C 538.933594 226.179688 539.230469 226.675781 539.503906 227.183594 C 539.773438 227.695312 540.023438 228.214844 540.242188 228.75 C 540.464844 229.285156 540.660156 229.828125 540.828125 230.382812 C 540.996094 230.933594 541.132812 231.496094 541.246094 232.0625 C 541.359375 232.628906 541.445312 233.199219 541.5 233.777344 C 541.558594 234.351562 541.585938 234.929688 541.585938 235.507812 Z M 541.585938 235.507812 " fill-opacity="1" fill-rule="nonzero"/></g><g clip-path="url(#3e750dbb8f)"><g clip-path="url(#c49f633289)"><path fill="#57c5f0" d="M 437.097656 321.191406 L 491.183594 321.191406 L 491.183594 375.28125 L 437.097656 375.28125 Z M 437.097656 321.191406 " fill-opacity="1" fill-rule="nonzero"/></g></g><g clip-path="url(#593c5fa090)"><g clip-path="url(#84fc8d205a)"><path fill="#57c5f0" d="M 329.738281 221.976562 L 392.5 221.976562 L 392.5 284.742188 L 329.738281 284.742188 Z M 329.738281 221.976562 " fill-opacity="1" fill-rule="nonzero"/></g></g><g clip-path="url(#0a44febf19)"><g clip-path="url(#ccac250992)"><path fill="#faad26" d="M 373.328125 356.105469 L 411.675781 356.105469 L 411.675781 394.457031 L 373.328125 394.457031 Z M 373.328125 356.105469 " fill-opacity="1" fill-rule="nonzero"/></g></g><g clip-path="url(#fb7b82b2d5)"><g clip-path="url(#fbe0d370e2)"><path fill="#faad26" d="M 425.789062 242.054688 L 448.402344 242.054688 L 448.402344 264.664062 L 425.789062 264.664062 Z M 425.789062 242.054688 " fill-opacity="1" fill-rule="nonzero"/></g></g><g clip-path="url(#d1a6e67dd7)"><g clip-path="url(#748e85cf2c)"><path fill="#faad26" d="M 441.527344 415.84375 L 464.140625 415.84375 L 464.140625 438.457031 L 441.527344 438.457031 Z M 441.527344 415.84375 " fill-opacity="1" fill-rule="nonzero"/></g></g><g fill="#7b7b7b" fill-opacity="1"><g transform="translate(158.542646, 549.159378)"><g><path d="M 24.09375 -28.34375 C 25.132812 -28.34375 26.085938 -28.085938 26.953125 -27.578125 C 27.816406 -27.078125 28.5 -26.394531 29 -25.53125 C 29.507812 -24.664062 29.765625 -23.71875 29.765625 -22.6875 L 29.765625 -17.015625 C 29.765625 -15.972656 29.507812 -15.019531 29 -14.15625 C 28.5 -13.289062 27.816406 -12.601562 26.953125 -12.09375 C 26.085938 -11.59375 25.132812 -11.34375 24.09375 -11.34375 L 7.09375 -11.34375 L 7.09375 0 L 1.421875 0 L 1.421875 -28.34375 Z M 7.09375 -17.015625 L 24.09375 -17.015625 L 24.09375 -22.6875 L 7.09375 -22.6875 Z M 7.09375 -17.015625 "/></g></g></g><g fill="#7b7b7b" fill-opacity="1"><g transform="translate(195.256822, 549.159378)"><g><path d="M 29.765625 -28.34375 L 29.765625 -22.6875 L 7.09375 -22.6875 L 7.09375 -17.015625 L 29.765625 -17.015625 L 29.765625 -11.34375 L 7.09375 -11.34375 L 7.09375 -5.671875 L 29.765625 -5.671875 L 29.765625 0 L 7.09375 0 C 6.050781 0 5.097656 -0.253906 4.234375 -0.765625 C 3.367188 -1.273438 2.679688 -1.957031 2.171875 -2.8125 C 1.671875 -3.675781 1.421875 -4.628906 1.421875 -5.671875 L 1.421875 -22.6875 C 1.421875 -23.71875 1.671875 -24.664062 2.171875 -25.53125 C 2.679688 -26.394531 3.367188 -27.078125 4.234375 -27.578125 C 5.097656 -28.085938 6.050781 -28.34375 7.09375 -28.34375 Z M 29.765625 -28.34375 "/></g></g></g><g fill="#7b7b7b" fill-opacity="1"><g transform="translate(231.970998, 549.159378)"><g><path d="M 24.09375 0 L 7.09375 0 C 6.050781 0 5.097656 -0.253906 4.234375 -0.765625 C 3.367188 -1.273438 2.679688 -1.957031 2.171875 -2.8125 C 1.671875 -3.675781 1.421875 -4.628906 1.421875 -5.671875 L 1.421875 -22.6875 C 1.421875 -23.71875 1.671875 -24.664062 2.171875 -25.53125 C 2.679688 -26.394531 3.367188 -27.078125 4.234375 -27.578125 C 5.097656 -28.085938 6.050781 -28.34375 7.09375 -28.34375 L 24.09375 -28.34375 C 25.132812 -28.34375 26.085938 -28.085938 26.953125 -27.578125 C 27.816406 -27.078125 28.5 -26.394531 29 -25.53125 C 29.507812 -24.664062 29.765625 -23.71875 29.765625 -22.6875 L 29.765625 -5.671875 C 29.765625 -4.648438 29.507812 -3.707031 29 -2.84375 C 28.5 -1.988281 27.820312 -1.300781 26.96875 -0.78125 C 26.113281 -0.257812 25.15625 0 24.09375 0 Z M 7.09375 -22.6875 L 7.09375 -5.671875 L 24.09375 -5.671875 L 24.09375 -22.6875 Z M 7.09375 -22.6875 "/></g></g></g><g fill="#7b7b7b" fill-opacity="1"><g transform="translate(268.685171, 549.159378)"><g><path d="M 24.09375 -28.34375 C 25.132812 -28.34375 26.085938 -28.085938 26.953125 -27.578125 C 27.816406 -27.078125 28.5 -26.394531 29 -25.53125 C 29.507812 -24.664062 29.765625 -23.71875 29.765625 -22.6875 L 29.765625 -17.015625 C 29.765625 -15.972656 29.507812 -15.019531 29 -14.15625 C 28.5 -13.289062 27.816406 -12.601562 26.953125 -12.09375 C 26.085938 -11.59375 25.132812 -11.34375 24.09375 -11.34375 L 7.09375 -11.34375 L 7.09375 0 L 1.421875 0 L 1.421875 -28.34375 Z M 7.09375 -17.015625 L 24.09375 -17.015625 L 24.09375 -22.6875 L 7.09375 -22.6875 Z M 7.09375 -17.015625 "/></g></g></g><g fill="#7b7b7b" fill-opacity="1"><g transform="translate(305.39935, 549.159378)"><g><path d="M 29.765625 0 L 7.09375 0 C 6.050781 0 5.097656 -0.253906 4.234375 -0.765625 C 3.367188 -1.273438 2.679688 -1.957031 2.171875 -2.8125 C 1.671875 -3.675781 1.421875 -4.628906 1.421875 -5.671875 L 1.421875 -28.34375 L 7.09375 -28.34375 L 7.09375 -5.671875 L 29.765625 -5.671875 Z M 29.765625 0 "/></g></g></g><g fill="#7b7b7b" fill-opacity="1"><g transform="translate(342.113528, 549.159378)"><g><path d="M 29.765625 -28.34375 L 29.765625 -22.6875 L 7.09375 -22.6875 L 7.09375 -17.015625 L 29.765625 -17.015625 L 29.765625 -11.34375 L 7.09375 -11.34375 L 7.09375 -5.671875 L 29.765625 -5.671875 L 29.765625 0 L 7.09375 0 C 6.050781 0 5.097656 -0.253906 4.234375 -0.765625 C 3.367188 -1.273438 2.679688 -1.957031 2.171875 -2.8125 C 1.671875 -3.675781 1.421875 -4.628906 1.421875 -5.671875 L 1.421875 -22.6875 C 1.421875 -23.71875 1.671875 -24.664062 2.171875 -25.53125 C 2.679688 -26.394531 3.367188 -27.078125 4.234375 -27.578125 C 5.097656 -28.085938 6.050781 -28.34375 7.09375 -28.34375 Z M 29.765625 -28.34375 "/></g></g></g><g fill="#7b7b7b" fill-opacity="1"><g transform="translate(378.827695, 549.159378)"><g/></g></g><g fill="#7b7b7b" fill-opacity="1"><g transform="translate(399.949892, 549.159378)"><g><path d="M 29.765625 0 L 7.09375 0 C 6.050781 0 5.097656 -0.253906 4.234375 -0.765625 C 3.367188 -1.273438 2.679688 -1.957031 2.171875 -2.8125 C 1.671875 -3.675781 1.421875 -4.628906 1.421875 -5.671875 L 1.421875 -22.6875 C 1.421875 -23.71875 1.671875 -24.664062 2.171875 -25.53125 C 2.679688 -26.394531 3.367188 -27.078125 4.234375 -27.578125 C 5.097656 -28.085938 6.050781 -28.34375 7.09375 -28.34375 L 29.765625 -28.34375 L 29.765625 -22.6875 L 7.09375 -22.6875 L 7.09375 -5.671875 L 29.765625 -5.671875 Z M 29.765625 0 "/></g></g></g><g fill="#7b7b7b" fill-opacity="1"><g transform="translate(436.664071, 549.159378)"><g><path d="M 24.09375 0 L 7.09375 0 C 6.050781 0 5.097656 -0.253906 4.234375 -0.765625 C 3.367188 -1.273438 2.679688 -1.957031 2.171875 -2.8125 C 1.671875 -3.675781 1.421875 -4.628906 1.421875 -5.671875 L 1.421875 -22.6875 C 1.421875 -23.71875 1.671875 -24.664062 2.171875 -25.53125 C 2.679688 -26.394531 3.367188 -27.078125 4.234375 -27.578125 C 5.097656 -28.085938 6.050781 -28.34375 7.09375 -28.34375 L 24.09375 -28.34375 C 25.132812 -28.34375 26.085938 -28.085938 26.953125 -27.578125 C 27.816406 -27.078125 28.5 -26.394531 29 -25.53125 C 29.507812 -24.664062 29.765625 -23.71875 29.765625 -22.6875 L 29.765625 -5.671875 C 29.765625 -4.648438 29.507812 -3.707031 29 -2.84375 C 28.5 -1.988281 27.820312 -1.300781 26.96875 -0.78125 C 26.113281 -0.257812 25.15625 0 24.09375 0 Z M 7.09375 -22.6875 L 7.09375 -5.671875 L 24.09375 -5.671875 L 24.09375 -22.6875 Z M 7.09375 -22.6875 "/></g></g></g><g fill="#7b7b7b" fill-opacity="1"><g transform="translate(473.37825, 549.159378)"><g><path d="M 7.09375 0 L 1.421875 0 L 1.421875 -25.515625 C 1.421875 -26.296875 1.695312 -26.960938 2.25 -27.515625 C 2.800781 -28.066406 3.46875 -28.34375 4.25 -28.34375 C 5.03125 -28.34375 5.703125 -28.0625 6.265625 -27.5 L 24.09375 -9.671875 L 24.09375 -28.34375 L 29.765625 -28.34375 L 29.765625 -2.828125 C 29.765625 -2.054688 29.488281 -1.390625 28.9375 -0.828125 C 28.382812 -0.273438 27.71875 0 26.9375 0 C 26.15625 0 25.476562 -0.28125 24.90625 -0.84375 L 7.09375 -18.671875 Z M 7.09375 0 "/></g></g></g><g fill="#7b7b7b" fill-opacity="1"><g transform="translate(510.092429, 549.159378)"><g><path d="M 7.09375 0 L 1.421875 0 L 1.421875 -25.515625 C 1.421875 -26.296875 1.695312 -26.960938 2.25 -27.515625 C 2.800781 -28.066406 3.46875 -28.34375 4.25 -28.34375 C 5.03125 -28.34375 5.703125 -28.0625 6.265625 -27.5 L 24.09375 -9.671875 L 24.09375 -28.34375 L 29.765625 -28.34375 L 29.765625 -2.828125 C 29.765625 -2.054688 29.488281 -1.390625 28.9375 -0.828125 C 28.382812 -0.273438 27.71875 0 26.9375 0 C 26.15625 0 25.476562 -0.28125 24.90625 -0.84375 L 7.09375 -18.671875 Z M 7.09375 0 "/></g></g></g><g fill="#7b7b7b" fill-opacity="1"><g transform="translate(546.806607, 549.159378)"><g><path d="M 29.765625 -28.34375 L 29.765625 -22.6875 L 7.09375 -22.6875 L 7.09375 -17.015625 L 29.765625 -17.015625 L 29.765625 -11.34375 L 7.09375 -11.34375 L 7.09375 -5.671875 L 29.765625 -5.671875 L 29.765625 0 L 7.09375 0 C 6.050781 0 5.097656 -0.253906 4.234375 -0.765625 C 3.367188 -1.273438 2.679688 -1.957031 2.171875 -2.8125 C 1.671875 -3.675781 1.421875 -4.628906 1.421875 -5.671875 L 1.421875 -22.6875 C 1.421875 -23.71875 1.671875 -24.664062 2.171875 -25.53125 C 2.679688 -26.394531 3.367188 -27.078125 4.234375 -27.578125 C 5.097656 -28.085938 6.050781 -28.34375 7.09375 -28.34375 Z M 29.765625 -28.34375 "/></g></g></g><g fill="#7b7b7b" fill-opacity="1"><g transform="translate(583.520764, 549.159378)"><g><path d="M 29.765625 0 L 7.09375 0 C 6.050781 0 5.097656 -0.253906 4.234375 -0.765625 C 3.367188 -1.273438 2.679688 -1.957031 2.171875 -2.8125 C 1.671875 -3.675781 1.421875 -4.628906 1.421875 -5.671875 L 1.421875 -22.6875 C 1.421875 -23.71875 1.671875 -24.664062 2.171875 -25.53125 C 2.679688 -26.394531 3.367188 -27.078125 4.234375 -27.578125 C 5.097656 -28.085938 6.050781 -28.34375 7.09375 -28.34375 L 29.765625 -28.34375 L 29.765625 -22.6875 L 7.09375 -22.6875 L 7.09375 -5.671875 L 29.765625 -5.671875 Z M 29.765625 0 "/></g></g></g><g fill="#7b7b7b" fill-opacity="1"><g transform="translate(620.234921, 549.159378)"><g><path d="M 29.765625 -28.34375 L 29.765625 -22.6875 L 18.421875 -22.6875 L 18.421875 0 L 12.75 0 L 12.75 -22.6875 L 1.421875 -22.6875 L 1.421875 -28.34375 Z M 29.765625 -28.34375 "/></g></g></g><g fill="#646262" fill-opacity="1"><g transform="translate(233.140748, 584.048321)"><g><path d="M 10.828125 0.203125 C 9.015625 0.203125 7.378906 -0.195312 5.921875 -1 C 4.460938 -1.800781 3.316406 -2.90625 2.484375 -4.3125 C 1.660156 -5.71875 1.25 -7.304688 1.25 -9.078125 C 1.25 -10.835938 1.660156 -12.421875 2.484375 -13.828125 C 3.316406 -15.234375 4.46875 -16.335938 5.9375 -17.140625 C 7.40625 -17.953125 9.046875 -18.359375 10.859375 -18.359375 C 12.273438 -18.359375 13.570312 -18.117188 14.75 -17.640625 C 15.925781 -17.160156 16.925781 -16.457031 17.75 -15.53125 L 16.078125 -13.890625 C 14.710938 -15.328125 13.007812 -16.046875 10.96875 -16.046875 C 9.613281 -16.046875 8.390625 -15.742188 7.296875 -15.140625 C 6.210938 -14.535156 5.363281 -13.703125 4.75 -12.640625 C 4.144531 -11.578125 3.84375 -10.390625 3.84375 -9.078125 C 3.84375 -7.765625 4.144531 -6.578125 4.75 -5.515625 C 5.363281 -4.453125 6.210938 -3.613281 7.296875 -3 C 8.390625 -2.394531 9.613281 -2.09375 10.96875 -2.09375 C 12.988281 -2.09375 14.691406 -2.820312 16.078125 -4.28125 L 17.75 -2.640625 C 16.925781 -1.710938 15.921875 -1.003906 14.734375 -0.515625 C 13.546875 -0.0351562 12.242188 0.203125 10.828125 0.203125 Z M 10.828125 0.203125 "/></g></g></g><g fill="#646262" fill-opacity="1"><g transform="translate(255.872626, 584.048321)"><g><path d="M 14.859375 0 L 10.9375 -5.578125 C 10.457031 -5.535156 10.078125 -5.515625 9.796875 -5.515625 L 5.3125 -5.515625 L 5.3125 0 L 2.71875 0 L 2.71875 -18.140625 L 9.796875 -18.140625 C 12.148438 -18.140625 14 -17.578125 15.34375 -16.453125 C 16.695312 -15.335938 17.375 -13.796875 17.375 -11.828125 C 17.375 -10.421875 17.023438 -9.222656 16.328125 -8.234375 C 15.640625 -7.253906 14.65625 -6.539062 13.375 -6.09375 L 17.671875 0 Z M 9.71875 -7.71875 C 11.363281 -7.71875 12.617188 -8.070312 13.484375 -8.78125 C 14.347656 -9.488281 14.78125 -10.503906 14.78125 -11.828125 C 14.78125 -13.140625 14.347656 -14.144531 13.484375 -14.84375 C 12.617188 -15.539062 11.363281 -15.890625 9.71875 -15.890625 L 5.3125 -15.890625 L 5.3125 -7.71875 Z M 9.71875 -7.71875 "/></g></g></g><g fill="#646262" fill-opacity="1"><g transform="translate(278.708177, 584.048321)"><g><path d="M 15.890625 -2.25 L 15.890625 0 L 2.71875 0 L 2.71875 -18.140625 L 15.53125 -18.140625 L 15.53125 -15.890625 L 5.3125 -15.890625 L 5.3125 -10.3125 L 14.40625 -10.3125 L 14.40625 -8.109375 L 5.3125 -8.109375 L 5.3125 -2.25 Z M 15.890625 -2.25 "/></g></g></g><g fill="#646262" fill-opacity="1"><g transform="translate(300.066283, 584.048321)"><g><path d="M 14.28125 -4.53125 L 4.640625 -4.53125 L 2.640625 0 L -0.03125 0 L 8.1875 -18.140625 L 10.75 -18.140625 L 19 0 L 16.28125 0 Z M 13.375 -6.609375 L 9.46875 -15.5 L 5.546875 -6.609375 Z M 13.375 -6.609375 "/></g></g></g><g fill="#646262" fill-opacity="1"><g transform="translate(323.031438, 584.048321)"><g><path d="M 6.328125 -15.890625 L 0.109375 -15.890625 L 0.109375 -18.140625 L 15.109375 -18.140625 L 15.109375 -15.890625 L 8.890625 -15.890625 L 8.890625 0 L 6.328125 0 Z M 6.328125 -15.890625 "/></g></g></g><g fill="#646262" fill-opacity="1"><g transform="translate(342.238182, 584.048321)"><g><path d="M 2.71875 -18.140625 L 5.3125 -18.140625 L 5.3125 0 L 2.71875 0 Z M 2.71875 -18.140625 "/></g></g></g><g fill="#646262" fill-opacity="1"><g transform="translate(354.265068, 584.048321)"><g><path d="M 18.484375 -18.140625 L 10.53125 0 L 7.953125 0 L -0.03125 -18.140625 L 2.78125 -18.140625 L 9.3125 -3.234375 L 15.890625 -18.140625 Z M 18.484375 -18.140625 "/></g></g></g><g fill="#646262" fill-opacity="1"><g transform="translate(376.71183, 584.048321)"><g><path d="M 15.890625 -2.25 L 15.890625 0 L 2.71875 0 L 2.71875 -18.140625 L 15.53125 -18.140625 L 15.53125 -15.890625 L 5.3125 -15.890625 L 5.3125 -10.3125 L 14.40625 -10.3125 L 14.40625 -8.109375 L 5.3125 -8.109375 L 5.3125 -2.25 Z M 15.890625 -2.25 "/></g></g></g><g fill="#646262" fill-opacity="1"><g transform="translate(398.069932, 584.048321)"><g/></g></g><g fill="#646262" fill-opacity="1"><g transform="translate(409.034114, 584.048321)"><g><path d="M 8.015625 0.203125 C 6.648438 0.203125 5.332031 -0.00390625 4.0625 -0.421875 C 2.789062 -0.847656 1.789062 -1.398438 1.0625 -2.078125 L 2.015625 -4.09375 C 2.710938 -3.46875 3.597656 -2.960938 4.671875 -2.578125 C 5.753906 -2.191406 6.867188 -2 8.015625 -2 C 9.515625 -2 10.632812 -2.253906 11.375 -2.765625 C 12.125 -3.273438 12.5 -3.953125 12.5 -4.796875 C 12.5 -5.421875 12.296875 -5.925781 11.890625 -6.3125 C 11.484375 -6.695312 10.976562 -6.992188 10.375 -7.203125 C 9.78125 -7.410156 8.941406 -7.644531 7.859375 -7.90625 C 6.492188 -8.238281 5.390625 -8.566406 4.546875 -8.890625 C 3.710938 -9.222656 2.992188 -9.726562 2.390625 -10.40625 C 1.796875 -11.09375 1.5 -12.015625 1.5 -13.171875 C 1.5 -14.140625 1.753906 -15.007812 2.265625 -15.78125 C 2.773438 -16.5625 3.546875 -17.1875 4.578125 -17.65625 C 5.617188 -18.125 6.910156 -18.359375 8.453125 -18.359375 C 9.523438 -18.359375 10.578125 -18.21875 11.609375 -17.9375 C 12.648438 -17.65625 13.539062 -17.257812 14.28125 -16.75 L 13.421875 -14.671875 C 12.660156 -15.148438 11.847656 -15.515625 10.984375 -15.765625 C 10.117188 -16.023438 9.273438 -16.15625 8.453125 -16.15625 C 6.984375 -16.15625 5.878906 -15.882812 5.140625 -15.34375 C 4.410156 -14.8125 4.046875 -14.117188 4.046875 -13.265625 C 4.046875 -12.648438 4.25 -12.144531 4.65625 -11.75 C 5.070312 -11.363281 5.585938 -11.0625 6.203125 -10.84375 C 6.816406 -10.632812 7.648438 -10.40625 8.703125 -10.15625 C 10.066406 -9.832031 11.164062 -9.503906 12 -9.171875 C 12.832031 -8.847656 13.546875 -8.347656 14.140625 -7.671875 C 14.734375 -6.992188 15.03125 -6.085938 15.03125 -4.953125 C 15.03125 -4.003906 14.769531 -3.132812 14.25 -2.34375 C 13.738281 -1.5625 12.953125 -0.941406 11.890625 -0.484375 C 10.835938 -0.0234375 9.546875 0.203125 8.015625 0.203125 Z M 8.015625 0.203125 "/></g></g></g><g fill="#646262" fill-opacity="1"><g transform="translate(429.122141, 584.048321)"><g><path d="M 10.90625 0.203125 C 9.082031 0.203125 7.4375 -0.195312 5.96875 -1 C 4.5 -1.800781 3.34375 -2.910156 2.5 -4.328125 C 1.664062 -5.742188 1.25 -7.328125 1.25 -9.078125 C 1.25 -10.816406 1.664062 -12.394531 2.5 -13.8125 C 3.34375 -15.226562 4.5 -16.335938 5.96875 -17.140625 C 7.4375 -17.953125 9.082031 -18.359375 10.90625 -18.359375 C 12.726562 -18.359375 14.375 -17.953125 15.84375 -17.140625 C 17.3125 -16.335938 18.457031 -15.234375 19.28125 -13.828125 C 20.113281 -12.421875 20.53125 -10.835938 20.53125 -9.078125 C 20.53125 -7.304688 20.113281 -5.71875 19.28125 -4.3125 C 18.457031 -2.90625 17.3125 -1.800781 15.84375 -1 C 14.375 -0.195312 12.726562 0.203125 10.90625 0.203125 Z M 10.90625 -2.09375 C 12.238281 -2.09375 13.4375 -2.394531 14.5 -3 C 15.5625 -3.613281 16.398438 -4.453125 17.015625 -5.515625 C 17.628906 -6.578125 17.9375 -7.765625 17.9375 -9.078125 C 17.9375 -10.390625 17.628906 -11.578125 17.015625 -12.640625 C 16.398438 -13.703125 15.5625 -14.535156 14.5 -15.140625 C 13.4375 -15.742188 12.238281 -16.046875 10.90625 -16.046875 C 9.582031 -16.046875 8.378906 -15.742188 7.296875 -15.140625 C 6.210938 -14.535156 5.363281 -13.703125 4.75 -12.640625 C 4.144531 -11.578125 3.84375 -10.390625 3.84375 -9.078125 C 3.84375 -7.765625 4.144531 -6.578125 4.75 -5.515625 C 5.363281 -4.453125 6.210938 -3.613281 7.296875 -3 C 8.378906 -2.394531 9.582031 -2.09375 10.90625 -2.09375 Z M 10.90625 -2.09375 "/></g></g></g><g fill="#646262" fill-opacity="1"><g transform="translate(454.886683, 584.048321)"><g><path d="M 2.71875 -18.140625 L 5.3125 -18.140625 L 5.3125 -2.25 L 15.140625 -2.25 L 15.140625 0 L 2.71875 0 Z M 2.71875 -18.140625 "/></g></g></g><g fill="#646262" fill-opacity="1"><g transform="translate(474.274872, 584.048321)"><g><path d="M 10.234375 0.203125 C 7.816406 0.203125 5.929688 -0.484375 4.578125 -1.859375 C 3.234375 -3.242188 2.5625 -5.234375 2.5625 -7.828125 L 2.5625 -18.140625 L 5.15625 -18.140625 L 5.15625 -7.9375 C 5.15625 -4.039062 6.859375 -2.09375 10.265625 -2.09375 C 11.921875 -2.09375 13.1875 -2.570312 14.0625 -3.53125 C 14.945312 -4.5 15.390625 -5.96875 15.390625 -7.9375 L 15.390625 -18.140625 L 17.90625 -18.140625 L 17.90625 -7.828125 C 17.90625 -5.222656 17.234375 -3.234375 15.890625 -1.859375 C 14.546875 -0.484375 12.660156 0.203125 10.234375 0.203125 Z M 10.234375 0.203125 "/></g></g></g><g fill="#646262" fill-opacity="1"><g transform="translate(498.769314, 584.048321)"><g><path d="M 6.328125 -15.890625 L 0.109375 -15.890625 L 0.109375 -18.140625 L 15.109375 -18.140625 L 15.109375 -15.890625 L 8.890625 -15.890625 L 8.890625 0 L 6.328125 0 Z M 6.328125 -15.890625 "/></g></g></g><g fill="#646262" fill-opacity="1"><g transform="translate(517.976063, 584.048321)"><g><path d="M 2.71875 -18.140625 L 5.3125 -18.140625 L 5.3125 0 L 2.71875 0 Z M 2.71875 -18.140625 "/></g></g></g><g fill="#646262" fill-opacity="1"><g transform="translate(530.002962, 584.048321)"><g><path d="M 10.90625 0.203125 C 9.082031 0.203125 7.4375 -0.195312 5.96875 -1 C 4.5 -1.800781 3.34375 -2.910156 2.5 -4.328125 C 1.664062 -5.742188 1.25 -7.328125 1.25 -9.078125 C 1.25 -10.816406 1.664062 -12.394531 2.5 -13.8125 C 3.34375 -15.226562 4.5 -16.335938 5.96875 -17.140625 C 7.4375 -17.953125 9.082031 -18.359375 10.90625 -18.359375 C 12.726562 -18.359375 14.375 -17.953125 15.84375 -17.140625 C 17.3125 -16.335938 18.457031 -15.234375 19.28125 -13.828125 C 20.113281 -12.421875 20.53125 -10.835938 20.53125 -9.078125 C 20.53125 -7.304688 20.113281 -5.71875 19.28125 -4.3125 C 18.457031 -2.90625 17.3125 -1.800781 15.84375 -1 C 14.375 -0.195312 12.726562 0.203125 10.90625 0.203125 Z M 10.90625 -2.09375 C 12.238281 -2.09375 13.4375 -2.394531 14.5 -3 C 15.5625 -3.613281 16.398438 -4.453125 17.015625 -5.515625 C 17.628906 -6.578125 17.9375 -7.765625 17.9375 -9.078125 C 17.9375 -10.390625 17.628906 -11.578125 17.015625 -12.640625 C 16.398438 -13.703125 15.5625 -14.535156 14.5 -15.140625 C 13.4375 -15.742188 12.238281 -16.046875 10.90625 -16.046875 C 9.582031 -16.046875 8.378906 -15.742188 7.296875 -15.140625 C 6.210938 -14.535156 5.363281 -13.703125 4.75 -12.640625 C 4.144531 -11.578125 3.84375 -10.390625 3.84375 -9.078125 C 3.84375 -7.765625 4.144531 -6.578125 4.75 -5.515625 C 5.363281 -4.453125 6.210938 -3.613281 7.296875 -3 C 8.378906 -2.394531 9.582031 -2.09375 10.90625 -2.09375 Z M 10.90625 -2.09375 "/></g></g></g><g fill="#646262" fill-opacity="1"><g transform="translate(555.767503, 584.048321)"><g><path d="M 18.328125 -18.140625 L 18.328125 0 L 16.203125 0 L 5.3125 -13.53125 L 5.3125 0 L 2.71875 0 L 2.71875 -18.140625 L 4.84375 -18.140625 L 15.734375 -4.609375 L 15.734375 -18.140625 Z M 18.328125 -18.140625 "/></g></g></g></svg>